<svg width="14" height="16" viewBox="0 0 14 16" fill="none" xmlns="http://www.w3.org/2000/svg">
<path fill-rule="evenodd" clip-rule="evenodd" d="M10.7896 0L10.8396 0.440542C10.965 1.53859 10.5561 2.76304 9.74738 3.71676C9.73514 3.72997 9.72086 3.7394 9.70964 3.75261C9.84426 3.74789 9.97887 3.73846 10.1186 3.75073C10.7284 3.77431 12.3316 3.98939 13.38 5.43553L13.6645 5.8289L13.2382 6.09115C12.8711 6.30623 11.7442 7.08072 11.7595 8.53346C11.7768 10.373 13.38 11.0475 13.5625 11.1182L14 11.288L13.8532 11.7069C13.7318 12.0691 13.382 12.9964 12.6987 13.9397C12.0471 14.8378 11.2373 15.9566 9.86771 15.9802C9.22115 15.9953 8.80813 15.8151 8.42978 15.6613C8.06978 15.5142 7.76078 15.3878 7.24884 15.3878C6.70731 15.3878 6.37995 15.5189 6.00058 15.6717C5.64467 15.8151 5.24082 15.9774 4.68094 15.9991C4.65545 16 4.62995 16 4.60649 16C3.27972 16 2.3578 14.7425 1.74387 13.9058L1.69714 13.8413C0.161902 11.7005 -0.696519 8.21474 0.719985 5.89305C1.50014 4.61293 2.91972 3.80449 4.42496 3.78374C5.01135 3.77619 5.55084 3.94599 6.01588 4.11579C6.09543 3.11679 6.60941 2.18478 7.14277 1.58293C7.91783 0.703733 9.22013 0.060375 10.3113 0.0188667L10.7896 0ZM10.0441 4.69123C9.38024 4.62615 8.74388 4.86858 8.17789 5.07989C7.75058 5.23931 7.38243 5.3761 7.04078 5.3761C6.74912 5.3761 6.44318 5.2846 6.125 5.16951L6.07605 5.16573L6.07401 5.15158C6.0067 5.12612 5.93939 5.10158 5.87004 5.07612C5.42336 4.9082 4.93282 4.6884 4.44231 4.72708C3.29705 4.74312 2.21095 5.36761 1.60823 6.35717C0.302873 8.49573 1.3951 11.7493 2.58828 13.3756C3.2226 14.2407 3.89568 15.0953 4.64015 15.0567C5.00932 15.0425 5.26631 14.9387 5.59368 14.8076C6.01588 14.6369 6.4952 14.4444 7.24884 14.4444C7.97596 14.4444 8.43589 14.6322 8.84179 14.7982C9.1773 14.9359 9.45571 15.0519 9.84834 15.0369C10.6265 15.0236 11.17 14.3558 11.8513 13.4143C12.2979 12.7983 12.5835 12.1917 12.7456 11.787C12.0552 11.404 10.758 10.4334 10.7397 8.54195C10.7244 7.04109 11.6157 6.08643 12.2316 5.60722C11.4627 4.83557 10.4714 4.70822 10.0441 4.69123ZM9.8361 1.03862C9.1467 1.20937 8.40633 1.64236 7.93312 2.17912L7.93211 2.18006C7.51297 2.65362 7.06731 3.43659 7.02142 4.2422C7.78424 4.13655 8.51034 3.64412 8.9458 3.13378C9.47202 2.514 9.78715 1.76028 9.8361 1.03862Z" fill="#FBBD00"/>
</svg>
