<svg width="9" height="16" viewBox="0 0 9 16" fill="none" xmlns="http://www.w3.org/2000/svg">
<path d="M7.46946 7.40267C7.95101 7.03904 8.30865 6.53377 8.49299 5.95662C8.67733 5.37947 8.67929 4.7589 8.4986 4.18057C8.31791 3.60225 7.96348 3.0947 7.48424 2.72799C7.00499 2.36128 6.42457 2.1535 5.82311 2.13333V0.533333C5.82311 0.391885 5.76734 0.256229 5.66806 0.15621C5.56878 0.0561903 5.43413 0 5.29374 0C5.15334 0 5.01869 0.0561903 4.91941 0.15621C4.82014 0.256229 4.76436 0.391885 4.76436 0.533333V2.13333H3.17624V0.533333C3.17624 0.391885 3.12047 0.256229 3.02119 0.15621C2.92192 0.0561903 2.78727 0 2.64687 0C2.50647 0 2.37182 0.0561903 2.27254 0.15621C2.17327 0.256229 2.11749 0.391885 2.11749 0.533333V2.13333H0.529374C0.388975 2.13333 0.254327 2.18952 0.15505 2.28954C0.0557732 2.38956 0 2.52522 0 2.66667V13.3333C0 13.4748 0.0557732 13.6104 0.15505 13.7105C0.254327 13.8105 0.388975 13.8667 0.529374 13.8667H2.11749V15.4667C2.11749 15.6081 2.17327 15.7438 2.27254 15.8438C2.37182 15.9438 2.50647 16 2.64687 16C2.78727 16 2.92192 15.9438 3.02119 15.8438C3.12047 15.7438 3.17624 15.6081 3.17624 15.4667V13.8667H4.76436V15.4667C4.76436 15.6081 4.82014 15.7438 4.91941 15.8438C5.01869 15.9438 5.15334 16 5.29374 16C5.43413 16 5.56878 15.9438 5.66806 15.8438C5.76734 15.7438 5.82311 15.6081 5.82311 15.4667V13.8667H5.86546C6.71495 13.8457 7.52161 13.4866 8.10893 12.8679C8.69625 12.2492 9.01641 11.4213 8.99935 10.5653V10.2347C9.00293 9.67078 8.86445 9.1152 8.59689 8.61991C8.32933 8.12462 7.94142 7.70581 7.46946 7.40267ZM1.05875 3.2H5.659C6.05396 3.19367 6.44106 3.31148 6.76648 3.53706C7.0919 3.76264 7.33947 4.08477 7.47476 4.45867C7.56995 4.74069 7.59696 5.04153 7.55354 5.33619C7.51013 5.63085 7.39755 5.91081 7.22516 6.15282C7.05276 6.39483 6.82553 6.5919 6.56234 6.72765C6.29916 6.8634 6.00762 6.93392 5.71194 6.93333H1.05875V3.2ZM7.9406 10.5653C7.95631 11.1398 7.74581 11.6972 7.35504 12.1159C6.96427 12.5346 6.42498 12.7805 5.85487 12.8H1.05875V8H5.85487C6.42498 8.0195 6.96427 8.26543 7.35504 8.6841C7.74581 9.10277 7.95631 9.66019 7.9406 10.2347V10.5653Z" fill="#FBBD00"/>
</svg>
