<svg width="35" height="35" viewBox="0 0 35 35" fill="none" xmlns="http://www.w3.org/2000/svg">
<path d="M13.8164 34.625C12.9537 34.6269 12.1139 34.3004 11.4236 33.6949L11.3808 33.6573L2.36938 25.5839C1.95204 25.2098 1.60176 24.743 1.33856 24.2105C1.07536 23.6779 0.904397 23.0899 0.835404 22.48C0.76641 21.8701 0.800749 21.2503 0.936465 20.6559C1.07218 20.0616 1.30662 19.5043 1.62639 19.016C1.94615 18.5276 2.34498 18.1178 2.80011 17.8098C3.25524 17.5018 3.75776 17.3017 4.27897 17.221C4.80018 17.1402 5.32987 17.1804 5.83781 17.3392C6.34574 17.498 6.82199 17.7724 7.23932 18.1466L13.0762 23.3837L26.8697 2.33418C27.1896 1.84596 27.5886 1.43627 28.0438 1.12847C28.499 0.820669 29.0016 0.620799 29.5229 0.540287C30.0441 0.459775 30.5738 0.500197 31.0817 0.659229C31.5896 0.818261 32.0657 1.09279 32.4829 1.46715L32.3972 1.60342L32.4851 1.46913C33.3267 2.22601 33.8774 3.34261 34.0163 4.57398C34.1552 5.80534 33.871 7.05091 33.2261 8.0374L17.0016 32.7967C16.6264 33.3672 16.1438 33.8289 15.5915 34.146C15.0391 34.4631 14.4317 34.627 13.8164 34.625Z" fill="#FBBD00"/>
</svg>
