<svg width="40" height="39" viewBox="0 0 40 39" fill="none" xmlns="http://www.w3.org/2000/svg">
<path fill-rule="evenodd" clip-rule="evenodd" d="M0.732226 17.716C1.70855 16.7613 3.29145 16.7613 4.26778 17.716L20 33.0987L35.7323 17.716C36.7086 16.7613 38.2916 16.7613 39.2678 17.716C40.2441 18.6706 40.2441 20.2183 39.2678 21.1729L21.7678 38.2841C20.7915 39.2386 19.2085 39.2386 18.2323 38.2841L0.732226 21.1729C-0.244075 20.2183 -0.244075 18.6706 0.732226 17.716Z" fill="#FBBD00"/>
<path fill-rule="evenodd" clip-rule="evenodd" d="M0.732226 0.715955C1.70855 -0.238652 3.29145 -0.238652 4.26778 0.715955L20 16.0987L35.7323 0.715955C36.7086 -0.238652 38.2916 -0.238652 39.2678 0.715955C40.2441 1.67059 40.2441 3.21832 39.2678 4.17295L21.7678 21.2841C20.7915 22.2386 19.2085 22.2386 18.2323 21.2841L0.732226 4.17295C-0.244075 3.21832 -0.244075 1.67059 0.732226 0.715955Z" fill="#FBBD00"/>
</svg>
