<svg width="23" height="23" viewBox="0 0 23 23" fill="none" xmlns="http://www.w3.org/2000/svg">
<path fill-rule="evenodd" clip-rule="evenodd" d="M10.0054 19.4292C9.21071 19.4292 8.42397 19.26 7.68965 18.9312C6.9555 18.6025 6.28841 18.1206 5.72651 17.5133C5.16458 16.9057 4.71884 16.1847 4.41473 15.3911C4.11061 14.5976 3.9541 13.7469 3.9541 12.8879C3.9541 12.0288 4.11061 11.1782 4.41473 10.3847C4.71884 9.59108 5.16458 8.86997 5.72651 8.26256C6.28841 7.65515 6.9555 7.17334 7.68965 6.8446C8.42397 6.51588 9.21071 6.34668 10.0054 6.34668C11.6105 6.34668 13.1495 7.03584 14.2844 8.26256C15.4192 9.48934 16.0568 11.1531 16.0568 12.8879C16.0568 14.6226 15.4192 16.2864 14.2844 17.5133C13.1495 18.7399 11.6105 19.4292 10.0054 19.4292ZM10.0054 2.81143C7.53313 2.81143 5.16208 3.87305 3.4139 5.76276C1.66571 7.65246 0.683594 10.2155 0.683594 12.8879C0.683594 15.5603 1.66571 18.1233 3.4139 20.013C5.16208 21.9028 7.53313 22.9643 10.0054 22.9643C12.4777 22.9643 14.8488 21.9028 16.5969 20.013C18.3452 18.1233 19.3273 15.5603 19.3273 12.8879C19.3273 10.2155 18.3452 7.65246 16.5969 5.76276C14.8488 3.87305 12.4777 2.81143 10.0054 2.81143ZM22.0392 2.62847C22.0392 3.26017 21.807 3.86601 21.3939 4.31271C20.9806 4.7594 20.4202 5.01035 19.8358 5.01035C19.2513 5.01035 18.6909 4.7594 18.2776 4.31271C17.8644 3.86601 17.6321 3.26017 17.6321 2.62847C17.6321 1.99675 17.8644 1.39091 18.2776 0.94421C18.6909 0.497532 19.2513 0.246582 19.8358 0.246582C20.4202 0.246582 20.9806 0.497532 21.3939 0.94421C21.807 1.39091 22.0392 1.99675 22.0392 2.62847Z" fill="#3F3D56"/>
</svg>
