<svg width="11" height="23" viewBox="0 0 11 23" fill="none" xmlns="http://www.w3.org/2000/svg">
<path d="M8.51498 3.66563V3.66563C9.5382 3.66563 10.5605 3.06447 10.7289 2.05521L10.7482 1.93976C10.8936 1.06876 10.3772 0.251712 9.50052 0.145819C8.83725 0.0657038 7.93933 0 6.77814 0C4.95223 0 3.89231 0.700783 3.11741 1.73399C2.38704 2.71328 2.36032 4.28555 2.36032 5.30078V6.4296C2.36032 7.08139 1.83195 7.60977 1.18016 7.60977V7.60977C0.528376 7.60977 0 8.13814 0 8.78993V9.87062C0 10.5224 0.528376 11.0508 1.18016 11.0508V11.0508C1.83195 11.0508 2.36032 11.5792 2.36032 12.2309V20.7911C2.36032 22.011 3.34929 23 4.56923 23V23C5.78918 23 6.77814 22.011 6.77814 20.7911V12.8666C6.77814 11.8637 7.5911 11.0508 8.59394 11.0508H8.68234C9.58259 11.0508 10.3306 10.3568 10.398 9.45906V9.45906C10.473 8.46092 9.6833 7.60977 8.68234 7.60977H8.58705C7.58802 7.60977 6.77814 6.79989 6.77814 5.80085V4.92344C6.77814 3.99805 7.59757 3.66563 8.51498 3.66563Z" fill="#3F3D56"/>
</svg>
