<svg width="23" height="26" viewBox="0 0 23 26" fill="none" xmlns="http://www.w3.org/2000/svg">
<path d="M5 9H1V26H5V9Z" fill="#3F3D56"/>
<path fill-rule="evenodd" clip-rule="evenodd" d="M4 10H2V25H4V10ZM5 9V26H1V9H5Z" fill="#3F3D56"/>
<path d="M3 5C4.10457 5 5 4.10457 5 3C5 1.89543 4.10457 1 3 1C1.89543 1 1 1.89543 1 3C1 4.10457 1.89543 5 3 5Z" fill="#3F3D56"/>
<path fill-rule="evenodd" clip-rule="evenodd" d="M3 1.5C2.17157 1.5 1.5 2.17157 1.5 3C1.5 3.82843 2.17157 4.5 3 4.5C3.82843 4.5 4.5 3.82843 4.5 3C4.5 2.17157 3.82843 1.5 3 1.5ZM0.5 3C0.5 1.61929 1.61929 0.5 3 0.5C4.38071 0.5 5.5 1.61929 5.5 3C5.5 4.38071 4.38071 5.5 3 5.5C1.61929 5.5 0.5 4.38071 0.5 3Z" fill="#3F3D56"/>
<path d="M17.2727 9C16.1273 9 14.9818 9.425 14.0909 10.1333V9H9V26H11.5455H14.0909V16.7917C14.0909 15.6583 14.9818 14.6667 16 14.6667C17.0182 14.6667 17.9091 15.6583 17.9091 16.7917V26H23V15.375C23 11.8333 20.4545 9 17.2727 9Z" fill="#3F3D56"/>
</svg>
