<svg width="23" height="24" viewBox="0 0 23 24" fill="none" xmlns="http://www.w3.org/2000/svg">
<path d="M21.5523 1.30194C20.7027 1.956 19.7699 2.43564 18.7704 2.69727C17.9708 1.58536 16.8297 0.887695 15.5721 0.887695C13.1567 0.887695 11.191 3.46034 11.191 6.62164C11.191 7.06858 11.2243 7.50462 11.3076 7.92976C7.66784 7.68994 4.43619 5.41163 2.27898 1.9342C1.90417 2.78448 1.68762 3.76557 1.68762 4.82297C1.68762 6.80696 2.46222 8.56203 3.6366 9.59762C2.92031 9.56492 2.24566 9.3033 1.6543 8.87816V8.94356C1.6543 11.7233 3.16185 14.0452 5.16914 14.5685C4.80267 14.6993 4.4112 14.7756 4.01141 14.7756C3.72822 14.7756 3.45337 14.7429 3.18684 14.6775C3.74488 16.9558 5.36071 18.6128 7.27638 18.6564C5.77716 20.1934 3.88647 21.1091 1.83754 21.1091C1.48772 21.1091 1.1379 21.0873 0.788086 21.0328C2.72874 22.6571 5.02755 23.6055 7.50126 23.6055C15.5637 23.6055 19.9698 14.8628 19.9698 7.2866C19.9698 7.03588 19.9698 6.78516 19.9614 6.54534C20.8193 5.72776 21.5606 4.72486 22.1436 3.56935C21.3607 4.02719 20.5112 4.33243 19.6283 4.47414C20.5361 3.76557 21.2275 2.64276 21.5523 1.30194Z" fill="#3F3D56"/>
</svg>
