<svg width="22" height="24" viewBox="0 0 22 24" fill="none" xmlns="http://www.w3.org/2000/svg">
<path d="M21.4113 12.3691C21.4113 6.47087 16.8482 1.68404 11.2257 1.68404C10.6334 1.68404 10.0495 1.73655 9.48224 1.84156C8.57296 1.23774 7.49684 0.887695 6.3373 0.887695C3.07557 0.887695 0.431152 3.66178 0.431152 7.08345C0.431152 8.22984 0.731465 9.29747 1.24033 10.2163C1.10686 10.9077 1.03178 11.6252 1.03178 12.3603C1.03178 18.2586 5.59486 23.0454 11.2174 23.0454C11.8514 23.0454 12.477 22.9841 13.086 22.8704C13.9202 23.3429 14.8712 23.6055 15.8806 23.6055C19.1423 23.6055 21.7867 20.8314 21.7867 17.4097C21.7867 16.4208 21.5698 15.4845 21.1777 14.6619C21.3279 13.918 21.4113 13.1567 21.4113 12.3691ZM16.4478 17.471C15.9807 18.171 15.2799 18.7224 14.379 19.1162C13.4864 19.51 12.4186 19.7025 11.2007 19.7025C9.74084 19.7025 8.51457 19.4312 7.55523 18.8974C6.87119 18.5123 6.30393 17.9873 5.87849 17.3397C5.4447 16.6834 5.22781 16.0358 5.22781 15.4057C5.22781 15.0119 5.36963 14.6794 5.65325 14.3993C5.92854 14.1193 6.28725 13.988 6.71269 13.988C7.06306 13.988 7.36337 14.0931 7.61363 14.3118C7.8472 14.5219 8.04741 14.8281 8.21425 15.2307C8.39778 15.6682 8.58964 16.027 8.79819 16.3158C8.9984 16.5959 9.29037 16.8234 9.64908 17.0072C10.0161 17.1909 10.5166 17.2872 11.1256 17.2872C11.9682 17.2872 12.6605 17.0947 13.1778 16.7271C13.6866 16.3683 13.9285 15.9308 13.9285 15.397C13.9285 14.9769 13.8034 14.6444 13.5365 14.3818C13.2612 14.1106 12.8941 13.9005 12.452 13.7518C11.9932 13.603 11.3592 13.4367 10.5834 13.2617C9.52395 13.0254 8.63135 12.7454 7.91394 12.4216C7.17984 12.0978 6.5959 11.6428 6.16212 11.0739C5.72833 10.4964 5.5031 9.77878 5.5031 8.92992C5.5031 8.12482 5.73667 7.39849 6.19549 6.76841C6.6543 6.14708 7.31332 5.65702 8.17254 5.33323C9.01509 5.00945 10.0245 4.83442 11.159 4.83442C12.0683 4.83442 12.8691 4.94819 13.5365 5.15821C14.2122 5.37699 14.7711 5.67453 15.2215 6.04207C15.672 6.40962 16.0057 6.80341 16.2142 7.20596C16.4228 7.61726 16.5312 8.02856 16.5312 8.42236C16.5312 8.80741 16.3894 9.1487 16.1141 9.45499C15.8389 9.76127 15.4801 9.91004 15.0714 9.91004C14.696 9.91004 14.3957 9.81378 14.1955 9.62126C14.0036 9.44623 13.8034 9.1662 13.5865 8.7724C13.3363 8.26484 13.0276 7.87104 12.6689 7.58226C12.3269 7.31098 11.7513 7.17096 10.9671 7.17096C10.2414 7.17096 9.64074 7.32848 9.19861 7.62601C8.77317 7.9148 8.56462 8.25609 8.56462 8.64989C8.56462 8.89492 8.63135 9.09619 8.76483 9.27121C8.90664 9.45499 9.11519 9.62126 9.37379 9.75252C9.64074 9.89254 9.91603 10.0063 10.1913 10.0851C10.4749 10.1638 10.9504 10.2863 11.6011 10.4439C12.427 10.6276 13.1861 10.8377 13.8535 11.0652C14.5292 11.2927 15.1214 11.5727 15.5969 11.8965C16.0808 12.2291 16.4728 12.6579 16.7481 13.1654C17.0234 13.6817 17.1652 14.3118 17.1652 15.0469C17.1569 15.9658 16.9233 16.7709 16.4478 17.471Z" fill="#3F3D56"/>
</svg>
