<svg width="24" height="41" viewBox="0 0 24 41" fill="none" xmlns="http://www.w3.org/2000/svg">
<path d="M17.0728 0.915776C17.0728 0.412091 16.6908 -1.43051e-05 16.224 -1.43051e-05L3.67902 -1.43051e-05C3.21219 -1.43051e-05 2.83024 0.412091 2.83024 0.915776V3.01294L17.0728 3.01294V0.915776Z" fill="#FBBD00"/>
<path d="M17.357 26.2144L17.3527 32.9134C17.3527 33.6873 17.0811 34.4108 16.5845 34.9511C16.0328 35.5463 15.2435 35.8852 14.4117 35.8852C13.7623 35.8852 13.1385 35.67 12.6547 35.2853C12.069 34.8183 11.7041 34.1131 11.6277 33.3072C11.6277 33.2889 11.2924 29.7952 10.9911 26.6678C8.88189 28.0048 7.46018 30.4774 7.46018 33.3072C7.46018 37.5565 10.6516 40.9999 14.59 40.9999C18.5283 40.9999 21.7197 37.5565 21.7197 33.3072C21.724 30.1203 19.9245 27.3821 17.357 26.2144Z" fill="#FBBD00"/>
<path d="M0.606218 17.4732C0.606218 18.3661 1.13671 19.1583 1.92607 19.433C4.28144 20.2618 9.03462 21.9148 9.76037 22.0705C9.9853 22.1163 10.206 22.1392 10.4182 22.1392C10.9911 22.1392 11.4919 21.9698 11.7932 21.6813H11.7974C11.7974 21.6813 11.7974 21.6813 11.7974 21.6859C11.8017 21.7226 12.8966 33.147 12.8966 33.1653C12.9857 34.0811 13.6902 34.5161 14.4159 34.5161C15.2392 34.5161 16.088 33.9575 16.0838 32.9181L16.0923 14.4053C16.0923 14.1856 16.2408 14.0024 16.4445 13.9703C16.4488 13.9703 16.4488 13.9703 16.453 13.9703C16.4699 13.9657 16.4912 13.9657 16.5082 13.9657C16.5124 13.9657 16.5167 13.9657 16.5209 13.9657C17.0981 13.984 18.401 14.0024 19.6699 15.985C19.8397 16.2461 19.9924 16.4841 20.1325 16.704C20.5739 17.3862 21.1638 17.6793 21.7197 17.6793C22.6958 17.6793 23.5743 16.7681 23.3621 15.4081C23.0565 13.4255 21.0449 8.80529 17.0811 4.4736L2.83856 4.4736L1.39992 7.09729C0.88636 8.02686 0.614792 9.08914 0.614792 10.1744L0.606218 17.4732Z" fill="#FBBD00"/>
</svg>
