<svg width="12" height="15" viewBox="0 0 12 15" fill="none" xmlns="http://www.w3.org/2000/svg">
<path d="M2.25 6.57139C2.13949 6.57139 2.03351 6.62031 1.95537 6.70738C1.87723 6.79445 1.83333 6.91254 1.83333 7.03568V12.6071C1.83333 12.7302 1.87723 12.8483 1.95537 12.9354C2.03351 13.0225 2.13949 13.0714 2.25 13.0714H9.75C9.86051 13.0714 9.96649 13.0225 10.0446 12.9354C10.1228 12.8483 10.1667 12.7302 10.1667 12.6071V7.03568C10.1667 6.91254 10.1228 6.79445 10.0446 6.70738C9.96649 6.62031 9.86051 6.57139 9.75 6.57139H2.25ZM2.25 5.64282H9.75C10.0815 5.64282 10.3995 5.78957 10.6339 6.05078C10.8683 6.31199 11 6.66627 11 7.03568V12.6071C11 12.9765 10.8683 13.3308 10.6339 13.592C10.3995 13.8532 10.0815 14 9.75 14H2.25C1.91848 14 1.60054 13.8532 1.36612 13.592C1.1317 13.3308 1 12.9765 1 12.6071V7.03568C1 6.66627 1.1317 6.31199 1.36612 6.05078C1.60054 5.78957 1.91848 5.64282 2.25 5.64282Z" fill="#FBBD00"/>
<path fill-rule="evenodd" clip-rule="evenodd" d="M2.25 5.89282C1.99405 5.89282 1.74232 6.00588 1.55218 6.21776C1.36123 6.43053 1.25 6.72437 1.25 7.03568V12.6071C1.25 12.9184 1.36123 13.2123 1.55218 13.425C1.74232 13.6369 1.99405 13.75 2.25 13.75H9.75C10.0059 13.75 10.2577 13.6369 10.4478 13.425C10.6388 13.2123 10.75 12.9184 10.75 12.6071V7.03568C10.75 6.72437 10.6388 6.43053 10.4478 6.21776C10.2577 6.00588 10.0059 5.89282 9.75 5.89282H2.25ZM1.18006 5.8838C1.45875 5.57326 1.84291 5.39282 2.25 5.39282H9.75C10.1571 5.39282 10.5413 5.57326 10.8199 5.8838C11.0978 6.19346 11.25 6.60817 11.25 7.03568V12.6071C11.25 13.0346 11.0978 13.4493 10.8199 13.759C10.5413 14.0695 10.1571 14.25 9.75 14.25H2.25C1.84291 14.25 1.45875 14.0695 1.18006 13.759C0.902161 13.4493 0.75 13.0346 0.75 12.6071V7.03568C0.75 6.60817 0.902161 6.19346 1.18006 5.8838ZM1.76931 6.5404C1.89173 6.404 2.06392 6.32139 2.25 6.32139H9.75C9.93608 6.32139 10.1083 6.404 10.2307 6.5404C10.3523 6.67592 10.4167 6.85445 10.4167 7.03568V12.6071C10.4167 12.7883 10.3523 12.9669 10.2307 13.1024C10.1083 13.2388 9.93608 13.3214 9.75 13.3214H2.25C2.06392 13.3214 1.89173 13.2388 1.76931 13.1024C1.6477 12.9669 1.58333 12.7883 1.58333 12.6071V7.03568C1.58333 6.85445 1.6477 6.67592 1.76931 6.5404ZM2.25 6.82139C2.21506 6.82139 2.1753 6.83662 2.14143 6.87436C2.10677 6.91298 2.08333 6.97064 2.08333 7.03568V12.6071C2.08333 12.6721 2.10677 12.7298 2.14143 12.7684C2.1753 12.8062 2.21506 12.8214 2.25 12.8214H9.75C9.78494 12.8214 9.8247 12.8062 9.85857 12.7684C9.89323 12.7298 9.91667 12.6721 9.91667 12.6071V7.03568C9.91667 6.97064 9.89323 6.91298 9.85857 6.87436C9.8247 6.83662 9.78493 6.82139 9.75 6.82139H2.25Z" fill="#FBBD00"/>
<path d="M6.00033 7.96428C6.11083 7.96428 6.21681 8.0132 6.29495 8.10027C6.37309 8.18734 6.41699 8.30543 6.41699 8.42857V11.2143C6.41699 11.3374 6.37309 11.4555 6.29495 11.5426C6.21681 11.6297 6.11083 11.6786 6.00033 11.6786C5.88982 11.6786 5.78384 11.6297 5.7057 11.5426C5.62756 11.4555 5.58366 11.3374 5.58366 11.2143V8.42857C5.58366 8.30543 5.62756 8.18734 5.7057 8.10027C5.78384 8.0132 5.88982 7.96428 6.00033 7.96428ZM8.50033 5.64286V4.71429C8.50033 3.97547 8.23693 3.26691 7.76809 2.74449C7.29925 2.22207 6.66337 1.92857 6.00033 1.92857C5.33728 1.92857 4.7014 2.22207 4.23256 2.74449C3.76372 3.26691 3.50033 3.97547 3.50033 4.71429V5.64286H8.50033ZM6.00033 1C6.88438 1 7.73223 1.39133 8.35735 2.08789C8.98247 2.78445 9.33366 3.7292 9.33366 4.71429V6.57143H2.66699V4.71429C2.66699 3.7292 3.01818 2.78445 3.6433 2.08789C4.26842 1.39133 5.11627 1 6.00033 1Z" fill="#FBBD00"/>
<path fill-rule="evenodd" clip-rule="evenodd" d="M6.00033 1.25C5.19184 1.25 4.41021 1.60764 3.82936 2.25487C3.24772 2.90299 2.91699 3.78729 2.91699 4.71429V6.32143H9.08366V4.71429C9.08366 3.78729 8.75293 2.90299 8.17129 2.25487C7.59044 1.60764 6.80881 1.25 6.00033 1.25ZM3.45724 1.92091C4.12664 1.17501 5.0407 0.75 6.00033 0.75C6.95995 0.75 7.87401 1.17501 8.54341 1.92091C9.212 2.66592 9.58366 3.6711 9.58366 4.71429V6.82143H2.41699V4.71429C2.41699 3.6711 2.78865 2.66592 3.45724 1.92091ZM4.0465 2.57751C4.55961 2.00575 5.26171 1.67857 6.00033 1.67857C6.73894 1.67857 7.44104 2.00575 7.95415 2.57751C8.46647 3.14838 8.75033 3.91737 8.75033 4.71429V5.89286H3.25033V4.71429C3.25033 3.91737 3.53418 3.14838 4.0465 2.57751ZM6.00033 2.17857C5.41286 2.17857 4.84319 2.43838 4.41862 2.91147C3.99325 3.38545 3.75033 4.03356 3.75033 4.71429V5.39286H8.25033V4.71429C8.25033 4.03356 8.0074 3.38545 7.58203 2.91147C7.15746 2.43838 6.5878 2.17857 6.00033 2.17857ZM6.00033 8.21428C5.96539 8.21428 5.92562 8.22951 5.89176 8.26725C5.85709 8.30588 5.83366 8.36353 5.83366 8.42857V11.2143C5.83366 11.2793 5.85709 11.337 5.89176 11.3756C5.92562 11.4133 5.96539 11.4286 6.00033 11.4286C6.03526 11.4286 6.07503 11.4133 6.10889 11.3756C6.14356 11.337 6.16699 11.2793 6.16699 11.2143V8.42857C6.16699 8.36353 6.14356 8.30588 6.10889 8.26725C6.07503 8.22951 6.03526 8.21428 6.00033 8.21428ZM5.51964 7.93329C5.64205 7.79689 5.81425 7.71428 6.00033 7.71428C6.1864 7.71428 6.3586 7.79689 6.48101 7.93329C6.60263 8.06881 6.66699 8.24734 6.66699 8.42857V11.2143C6.66699 11.3955 6.60263 11.574 6.48101 11.7096C6.3586 11.846 6.1864 11.9286 6.00033 11.9286C5.81425 11.9286 5.64205 11.846 5.51964 11.7096C5.39802 11.574 5.33366 11.3955 5.33366 11.2143V8.42857C5.33366 8.24734 5.39802 8.06881 5.51964 7.93329Z" fill="#FBBD00"/>
</svg>
