<svg width="42" height="18" viewBox="0 0 42 18" fill="none" xmlns="http://www.w3.org/2000/svg">
<path d="M41.4464 2.73501C39.8458 1.00233 34.8672 0.458129 29.3045 2.54669C28.5404 2.8258 27.7981 3.13163 27.0805 3.46295C26.3606 1.4692 23.9424 0 21.0802 0C18.7053 0 16.6381 1.01217 15.5897 2.49666C16.0003 2.68227 16.3944 2.8841 16.7701 3.10117C17.5397 1.8476 19.1817 0.980052 21.0802 0.980052C23.4822 0.980052 25.4754 2.36885 25.8073 4.16969C25.0089 4.69861 24.3882 5.30813 23.4116 6.267C23.2563 6.41992 23.0897 6.5816 22.9131 6.75462C22.6374 6.81788 22.3732 6.90224 22.1257 7.00608C21.6494 7.19953 21.276 7.4907 21.0593 7.83757C21.0528 7.8485 21.0465 7.85811 21.0415 7.86903C21.0368 7.85811 21.0307 7.8485 21.0242 7.83757C21.0242 7.83757 21.0242 7.83429 21.021 7.8332C20.8509 7.58101 20.6037 7.35632 20.2956 7.1741C19.9876 6.99189 19.6258 6.85633 19.2345 6.77647C19.1817 6.76336 19.1273 6.75024 19.071 6.73823C18.8994 6.57176 18.7407 6.41511 18.5901 6.267C17.9235 5.55832 17.1705 4.8889 16.3387 4.26582C15.9438 3.99489 15.5152 3.74762 15.0576 3.52674C14.299 3.16876 13.5103 2.84101 12.6956 2.54517C7.13293 0.456601 2.15421 1.00081 0.553765 2.73349C-0.656874 4.04429 0.419217 5.96026 0.937142 6.72316C1.96334 8.23059 3.59566 9.44484 5.46681 10.1011C5.62888 9.79243 5.84367 9.49766 6.10674 9.22288C4.52722 8.66469 3.13696 7.61976 2.24854 6.31288C1.57256 5.31928 1.09423 3.99252 1.77728 3.25431C3.00048 1.93083 7.39752 1.67522 11.998 3.40221C13.0155 3.75331 13.9758 4.17612 14.8629 4.66364C14.8838 4.67568 14.9044 4.68746 14.9237 4.70057C15.6773 5.15542 16.2306 5.67472 17.1287 6.55515C17.0308 6.55515 16.933 6.55626 16.8351 6.55843C16.3366 6.56983 15.8398 6.60509 15.3486 6.66395C14.343 6.78542 13.3601 6.9814 12.4174 7.24837C11.1677 7.59064 10.002 8.05996 8.96031 8.64023C8.62507 8.83107 8.31051 9.03806 8.0191 9.25958C7.87007 9.37384 7.73359 9.4881 7.61191 9.60126C7.3115 9.87129 7.07556 10.1717 6.91276 10.4915C6.73022 10.8354 6.69957 11.2079 6.82456 11.5633C6.85205 11.6403 6.88844 11.7157 6.93336 11.7888C7.50762 12.7311 10.1149 13.5953 12.2346 13.5953C12.3917 13.5953 12.5459 13.5899 12.6965 13.58C13.4222 13.5487 14.1142 13.3611 14.672 13.0445C14.9924 12.8531 15.2483 12.617 15.4223 12.3525C15.5483 12.793 15.7352 13.2246 15.9805 13.6414C17.4123 16.0867 20.4768 17.6887 20.6451 17.776L21.0812 18L21.5173 17.776C21.6841 17.6899 24.6858 16.1206 26.1355 13.7198C25.7027 13.4333 25.3589 13.0905 25.1251 12.712C25.013 12.9685 24.8776 13.22 24.7196 13.4651C22.3037 13.6667 19.8607 13.6667 17.4448 13.4651C17.2536 13.1694 17.0959 12.8642 16.9732 12.5521C16.7992 12.1162 16.7072 11.6671 16.6993 11.2155C16.9655 11.2439 17.2394 11.2688 17.5185 11.2918C19.8354 11.4695 22.1741 11.4732 24.4922 11.3027C24.3794 11.0994 24.2057 10.9142 23.9823 10.7587C23.7587 10.6032 23.4901 10.4809 23.1935 10.3993C22.5084 10.431 21.7983 10.4483 21.0814 10.4483C20.3199 10.4483 19.566 10.4288 18.8415 10.3928H18.835C18.0972 10.3559 17.392 10.3004 16.7376 10.2285C16.7376 10.2025 16.7408 10.1774 16.7424 10.1522C17.5555 9.49072 18.6074 9.31114 19.4588 9.1652C20.1547 9.04549 20.7544 8.94324 21.0319 8.56987C21.0348 8.56441 21.0396 8.55895 21.0429 8.55371C21.0461 8.55895 21.0508 8.56441 21.0542 8.56987C21.2934 8.8943 21.779 9.01403 22.3578 9.11845C22.446 9.13374 22.5358 9.14992 22.6272 9.1652C22.7187 9.1805 22.8204 9.19797 22.9192 9.21633C23.5908 9.31645 24.2246 9.50985 24.7807 9.78434C25.0245 9.91273 25.2429 10.0619 25.4302 10.2283C25.7382 10.5034 25.9782 10.8107 26.1406 11.1382C26.1455 11.1489 26.1517 11.16 26.1582 11.1707C26.2632 11.3808 26.3478 11.5953 26.4114 11.8128C26.4731 12.0266 26.5757 12.234 26.7166 12.4298C27.2054 13.0968 28.1278 13.4983 29.3862 13.58C29.537 13.5899 29.6911 13.5953 29.8482 13.5953C31.9678 13.5953 34.5753 12.7311 35.1492 11.7888C35.3917 11.368 35.3968 10.9012 35.1638 10.478C35.085 10.321 34.9858 10.1692 34.8672 10.0242C34.7468 9.87323 34.61 9.72844 34.4585 9.59099C34.3397 9.48176 34.208 9.37013 34.0638 9.26024C32.8336 8.3778 31.331 7.69098 29.6639 7.24901C28.2419 6.83239 26.7198 6.59548 25.1725 6.54991C25.076 6.54773 24.9767 6.54773 24.8804 6.54773C25.7738 5.67277 26.3251 5.15565 27.0758 4.70188C27.1478 4.6582 27.2216 4.6145 27.297 4.57343C28.144 4.12889 29.049 3.73767 30.0008 3.40461C34.5998 1.67762 38.9996 1.93323 40.2216 3.25671C40.9046 3.99558 40.4254 5.32125 39.7499 6.31528C38.8619 7.62215 37.4716 8.66709 35.8906 9.22528C36.022 9.36283 36.1418 9.50529 36.2497 9.65195C36.3581 9.79819 36.4524 9.94903 36.5321 10.1035C38.4015 9.44812 40.0355 8.23277 41.0601 6.72556C41.5808 5.9618 42.6569 4.04517 41.4464 2.73501ZM21.0802 14.5979C22.0519 14.5979 22.998 14.5695 23.9006 14.5129C23.1174 15.343 22.1682 16.0953 21.0802 16.7482C19.9933 16.0949 19.0446 15.3427 18.2614 14.5129C19.164 14.569 20.1083 14.5974 21.0802 14.5974V14.5979ZM12.5575 12.6063C11.079 12.702 9.3955 12.1785 8.64034 11.727C8.48383 11.6429 8.35627 11.5367 8.26664 11.4157C8.2071 11.2927 8.18451 11.1629 8.20022 11.0339C8.21593 10.9049 8.26958 10.7794 8.35805 10.6648C8.54519 10.3887 8.795 10.1342 9.09841 9.91062C9.2043 9.82999 9.31667 9.74939 9.43511 9.6703C9.73283 9.4725 10.0517 9.28995 10.3892 9.12412C11.1882 8.73171 12.054 8.40608 12.9679 8.15434C14.0219 7.85185 15.1343 7.65321 16.2711 7.56448C16.5481 7.54441 16.8264 7.53428 17.1048 7.53411C17.2507 7.53411 17.3945 7.53739 17.5346 7.54394L17.6018 7.54723C18.2208 7.55224 18.8243 7.67848 19.3401 7.91076C19.3932 7.98758 19.4397 8.06644 19.4795 8.14693C19.3578 8.17073 19.2219 8.19476 19.106 8.21421C18.1101 8.38505 16.5068 8.65945 15.365 9.76294L15.3377 9.76075C15.3357 9.77089 15.3347 9.78111 15.3344 9.79134C15.3344 9.79134 15.3344 9.79134 15.3344 9.7933C14.7994 10.3456 14.4345 10.9657 14.2619 11.6162C14.0778 12.2205 13.5212 12.5438 12.5575 12.6059V12.6063ZM29.1153 8.155C30.4266 8.50615 31.6282 9.02276 32.6562 9.67751C32.7716 9.75376 32.8815 9.83219 32.9832 9.91062C33.1035 10.003 33.2127 10.0932 33.309 10.1837C33.4729 10.3315 33.6117 10.4914 33.7226 10.6604C33.812 10.7756 33.8662 10.9019 33.8822 11.0316C33.8982 11.1614 33.8755 11.292 33.8155 11.4157C33.5318 11.8814 31.3691 12.7265 29.5228 12.6063C28.5594 12.5443 28.0029 12.2209 27.8233 11.618C27.7091 11.2208 27.5317 10.8333 27.2941 10.4623C27.2941 10.4623 27.2941 10.4601 27.2941 10.459C27.2941 10.4579 27.2941 10.459 27.2941 10.4568C27.1944 10.3041 27.0813 10.1554 26.9558 10.0118C25.8091 8.70095 24.047 8.39881 22.9806 8.21595C22.9484 8.21049 22.9163 8.20416 22.8796 8.1987L22.6984 8.16593C22.6149 8.15063 22.5348 8.13555 22.4644 8.12027C22.507 8.07393 22.5571 8.03085 22.6134 7.9918C22.6315 7.97832 22.6509 7.96563 22.6714 7.95379C23.0576 7.71544 23.7455 7.56623 24.6349 7.53696C26.1761 7.52348 27.7039 7.73406 29.1153 8.15457V8.155Z" fill="#FBBD00"/>
</svg>
